<svg enable-background="new 0 0 24 24" viewBox="0 0 24 24" xmlns="http://www.w3.org/2000/svg"><path d="m0 0h24v24h-24z" fill="none"/><path d="m4.6 6.9c.7-.7 1.4-1.4 1.7-1.2.5.2 0 1-.3 1.5-.2.4-2.9 3.9-2.9 6.3 0 1.3.5 2.3 1.3 3 .8.6 1.7.7 2.6.5 1.1-.3 1.9-1.4 3.1-2.8 1.2-1.5 2.8-3.4 4.1-3.4 1.6 0 1.6 1 1.8 1.8-3.8.6-5.4 3.7-5.4 5.4s1.4 3.1 3.2 3.1c1.6 0 4.3-1.3 4.7-6.1h2.5v-2.5h-2.5c-.1-1.6-1.1-4.2-4-4.2-2.2 0-4.2 1.9-4.9 2.8-.6.7-2.1 2.5-2.3 2.7-.3.2-.7.8-1.1.8s-.7-.8-.4-1.9 1.4-2.9 1.8-3.5c.8-1.2 1.3-2 1.3-3.3 0-2.2-1.6-2.9-2.5-2.9-1.3 0-2.4 1-2.7 1.2-.3.4-.6.7-.9 1zm9.3 11.6c-.3 0-.7-.3-.7-.7 0-.6.7-2.2 2.9-2.8-.4 2.8-1.5 3.5-2.2 3.5z" fill="#32373c"/></svg>